<?xml version="1.0" encoding="UTF-8"?>
<svg version="1.1" xmlns="http://www.w3.org/2000/svg" width="1920" height="1920">
<path d="M0 0 C633.6 0 1267.2 0 1920 0 C1920 633.6 1920 1267.2 1920 1920 C1286.4 1920 652.8 1920 0 1920 C0 1286.4 0 652.8 0 0 Z " fill="#FEFEFE" transform="translate(0,0)"/>
<path d="M0 0 C1.41433307 -0.00299998 2.82866451 -0.00687199 4.24299309 -0.01153234 C8.12811441 -0.02179864 12.01314449 -0.01966211 15.89827347 -0.01547697 C20.1256732 -0.0131091 24.35305064 -0.02228198 28.58044189 -0.02996117 C35.98927378 -0.04180474 43.39808105 -0.04617407 50.80692196 -0.04563999 C61.824444 -0.04484667 72.84193495 -0.05539756 83.85944868 -0.06805556 C105.82917082 -0.09279486 127.79888542 -0.10157823 149.76861958 -0.10659205 C150.90638221 -0.10685322 152.04414484 -0.1071144 153.21638513 -0.10738349 C154.35643072 -0.10764376 155.49647631 -0.10790404 156.67106874 -0.1081722 C169.30422397 -0.1112544 181.93737711 -0.11775911 194.57053089 -0.12438488 C232.72654684 -0.14403258 270.88256052 -0.16043711 309.03858185 -0.16326141 C310.25902678 -0.16335547 311.47947172 -0.16344954 312.73689983 -0.16354645 C317.68284163 -0.16392493 322.62878343 -0.16428893 327.57472523 -0.16464943 C331.29736238 -0.16492115 335.01999953 -0.16519782 338.74263668 -0.16547489 C339.97273862 -0.16556291 341.20284057 -0.16565094 342.47021833 -0.16574163 C381.11996621 -0.16864701 419.76966408 -0.19074247 458.41939449 -0.22699833 C501.83850449 -0.26772709 545.2575804 -0.29142 588.67671055 -0.29172093 C593.30693623 -0.29181775 597.9371619 -0.29198447 602.56738758 -0.29220104 C604.27751512 -0.29226721 604.27751512 -0.29226721 606.02219069 -0.29233472 C624.36695541 -0.29345445 642.71167002 -0.31086138 661.05641861 -0.33402036 C679.49535155 -0.35686634 697.9342168 -0.36108586 716.3731587 -0.34647106 C727.32554186 -0.33832167 738.27771176 -0.34400335 749.23006904 -0.36965191 C756.5507215 -0.38541137 763.87122268 -0.38291858 771.19187153 -0.36574518 C775.35993096 -0.3564788 779.52757984 -0.35496218 783.69560713 -0.37571125 C815.52326425 -0.52416811 815.52326425 -0.52416811 828.03731441 5.26006222 C828.92801256 5.6695945 829.81871071 6.07912678 830.73639971 6.50106913 C846.30394789 14.1670499 855.59794441 27.58874784 861.21700191 43.62724972 C864.60124299 58.61460304 861.77279198 74.44535872 854.57637691 87.88896847 C851.58508475 92.49738051 847.90103289 96.37666436 844.03731441 100.26006222 C843.4327441 100.89943722 842.82817379 101.53881222 842.20528316 102.19756222 C838.14301844 106.16247419 833.68077953 108.65680456 828.59981441 111.07256222 C827.99121578 111.36284298 827.38261715 111.65312374 826.75557613 111.95220089 C817.35075125 116.18274927 808.27981025 116.54913876 798.06345558 116.51453781 C796.64791238 116.51693022 795.23237043 116.52019706 793.81683102 116.52425441 C789.92837224 116.53286314 786.04001016 116.52905265 782.15154992 116.52319869 C777.92059871 116.51902567 773.68966506 116.52643188 769.45871812 116.5323512 C762.04376213 116.54111533 754.62883375 116.54242455 747.21387386 116.53884792 C736.18746664 116.53354333 725.16108618 116.53963378 714.13468187 116.54793086 C693.2963546 116.5631798 672.45803947 116.564875 651.61970779 116.56240783 C635.52925164 116.5605759 619.43879949 116.56233268 603.34834385 116.56663227 C601.03747082 116.56723467 598.72659779 116.56783587 596.41572476 116.56843587 C592.93355068 116.56934312 589.45137661 116.57025178 585.96920254 116.57116823 C553.5890676 116.57959916 521.20893417 116.58393248 488.82879829 116.57976151 C487.60785248 116.57960513 486.38690668 116.57944875 485.12896251 116.57928764 C478.94058579 116.57848184 472.75220908 116.57763607 466.56383236 116.57677434 C465.33477963 116.57660325 464.10572689 116.57643216 462.83943013 116.57625589 C460.35398641 116.57590923 457.8685427 116.5755607 455.38309898 116.5752103 C416.70654915 116.56985268 378.03002211 116.57778413 339.35347652 116.59624386 C295.90950282 116.61695467 252.46554323 116.62768833 209.0215643 116.62366837 C204.39028696 116.62327302 199.75900962 116.62291147 195.12773228 116.62257099 C193.98737756 116.62248026 192.84702284 116.62238953 191.67211192 116.62229605 C174.44900868 116.62112953 157.22591969 116.62778247 140.00282001 116.63838291 C120.41769123 116.65042476 100.83259386 116.65200558 81.24746462 116.63959274 C70.28540593 116.63295625 59.32342232 116.63461341 48.36136962 116.64818126 C41.03936944 116.65641362 33.71742562 116.65374399 26.39543004 116.64220599 C22.22339799 116.63593756 18.05151265 116.63437971 13.87948897 116.64606933 C10.07988631 116.65661747 6.28055447 116.65322093 2.48096624 116.6389648 C0.47940418 116.63497322 -1.52217101 116.64561045 -3.52370498 116.65694186 C-20.33539215 116.55603911 -34.49629784 111.39019033 -46.74784184 99.63506222 C-53.53924704 92.35256775 -57.46702816 84.51635361 -60.96268559 75.26006222 C-61.30654301 74.48630245 -61.65040043 73.71254269 -62.00467777 72.91533566 C-65.92909891 62.03816842 -64.16664152 45.82614868 -59.63456059 35.36162472 C-50.9762702 19.29928227 -38.80075668 7.23222455 -21.09151596 1.67263215 C-14.08018963 -0.06677233 -7.19157618 -0.02120806 0 0 Z " fill="#020202" transform="translate(559.962685585022,901.7399377822876)"/>
<path d="M0 0 C1.19569279 -0.00250352 2.39138558 -0.00500704 3.62331149 -0.00758642 C4.93073781 -0.00524525 6.23816413 -0.00290409 7.58520943 -0.00049198 C8.99876794 -0.00153535 10.41232619 -0.00301677 11.82588384 -0.00489634 C15.72276433 -0.00879979 19.61962014 -0.00645548 23.51650024 -0.00311839 C27.75131123 -0.00058714 31.98611835 -0.00383944 36.22092879 -0.00636172 C43.64716914 -0.00997872 51.07340222 -0.00986058 58.49964291 -0.00731456 C69.54261085 -0.00353883 80.58557263 -0.00546231 91.62854053 -0.00852287 C111.3492509 -0.0137948 131.06995804 -0.01332974 150.79066873 -0.01044396 C168.04896582 -0.00793083 185.30726173 -0.00727056 202.56555897 -0.0084666 C204.28110016 -0.00858118 204.28110016 -0.00858118 206.03129876 -0.00869807 C210.67365066 -0.0090094 215.31600257 -0.0093278 219.95835448 -0.00965784 C263.53011567 -0.0127186 307.10187481 -0.00994062 350.67363569 -0.00456094 C389.40334748 0.00018454 428.13305599 -0.00023949 466.86276776 -0.00502193 C510.35208205 -0.01037411 553.84139452 -0.01250123 597.3307091 -0.00940967 C601.96503284 -0.00908894 606.59935657 -0.0087761 611.23368031 -0.0084666 C612.37481164 -0.00838752 613.51594298 -0.00830845 614.69165405 -0.00822697 C631.94042867 -0.00708846 649.18920198 -0.00842173 666.43797642 -0.01094615 C686.04710056 -0.01380168 705.65622094 -0.01309858 725.26534461 -0.00766541 C736.24618932 -0.00472346 747.22702591 -0.00454561 758.20787041 -0.00831159 C765.5361156 -0.01054815 772.86435425 -0.00916897 780.19259846 -0.00480682 C784.37231537 -0.00242045 788.55201612 -0.00163043 792.73173254 -0.0052128 C796.53244981 -0.00843722 800.33313656 -0.00707915 804.13385159 -0.00203214 C806.14817069 -0.00054643 808.16249157 -0.00397298 810.17680797 -0.00758642 C827.75878783 0.02914947 841.00583774 5.56940209 854.28293377 17.14488041 C865.16563153 28.28314054 870.39097976 43.33078765 870.25974041 58.62266362 C869.91465317 73.88410566 863.92097928 87.99461042 853.27512127 98.94566166 C846.87183667 104.99140245 840.93348627 108.91578196 832.66574627 112.08238041 C830.04019717 113.03074497 830.04019717 113.03074497 827.98605877 114.19956791 C823.56474314 116.22636058 818.73275772 116.25070133 813.94110972 116.25415033 C812.7472105 116.25742252 811.55331129 116.26069472 810.32323331 116.26406607 C809.01780792 116.26258245 807.71238253 116.26109882 806.3673988 116.25957024 C804.95595837 116.26152413 803.5445185 116.26391334 802.13307947 116.26669821 C798.24203562 116.27309669 794.35101243 116.27325996 790.45996433 116.2724208 C786.23137142 116.27259033 782.0027859 116.2784968 777.77419668 116.28366166 C769.38164542 116.29298987 760.98909942 116.29691008 752.59654362 116.29918063 C742.54615436 116.30214211 732.4957721 116.31083918 722.44538651 116.31959491 C698.15253478 116.34044209 673.85968183 116.35090936 649.56682324 116.35972452 C638.07611259 116.36393046 626.58540246 116.36915251 615.09469226 116.37440905 C575.76580601 116.39229908 536.43691961 116.40729558 497.1080299 116.41472924 C494.63882354 116.415204 492.16961718 116.41567988 489.70041081 116.4161569 C488.47590003 116.41639328 487.25138925 116.41662965 485.98977208 116.41687319 C479.78573483 116.4180744 473.58169758 116.41928984 467.37766033 116.42051518 C466.14644821 116.42075533 464.91523609 116.42099548 463.64671452 116.42124291 C423.72216091 116.42913695 383.797637 116.45257106 343.87309637 116.48507112 C301.66905164 116.51936411 259.4650243 116.53907986 217.26096541 116.54237348 C212.62848208 116.54279102 207.99599876 116.54327059 203.36351544 116.54379666 C202.22285606 116.54391985 201.08219669 116.54404304 199.90697188 116.54416997 C181.54584662 116.54650259 163.18475584 116.56216598 144.82364287 116.5826385 C126.36982448 116.60288806 107.91604752 116.6083779 89.46222007 116.59886787 C78.49834995 116.59364963 67.53461773 116.59954574 56.57076743 116.62140254 C49.24490669 116.63490347 41.91914095 116.63383986 34.59327927 116.62100058 C30.42059202 116.61409933 26.24816855 116.61345011 22.07550478 116.63056067 C18.27290159 116.64602639 14.47077287 116.64277871 10.66818328 116.62515039 C8.66987724 116.62055785 6.67155466 116.63543501 4.67330641 116.65131018 C-11.89381839 116.52513321 -26.71476755 110.95048869 -38.86940998 99.54722416 C-51.92422412 84.93714336 -55.92444944 68.77974399 -55.2126717 49.57945073 C-54.10229348 34.37301775 -44.62846448 21.59527372 -33.46706623 11.89488041 C-23.58758032 4.23000998 -12.53091963 0.00082578 0 0 Z " fill="#020202" transform="translate(552.0334724783897,612.8746508359909)"/>
<path d="M0 0 C1.78978391 -0.00413962 1.78978391 -0.00413962 3.61572507 -0.00836286 C5.5803763 -0.00527988 5.5803763 -0.00527988 7.58471745 -0.00213462 C8.99680793 -0.00348109 10.40889805 -0.00526488 11.82098749 -0.00744686 C15.71845966 -0.01218745 19.61590853 -0.01067177 23.51338185 -0.00816908 C27.74711248 -0.00653948 31.98083804 -0.01067394 36.21456707 -0.01407826 C43.64048913 -0.01923927 51.06640467 -0.02064825 58.49232835 -0.01962215 C69.53489433 -0.01810001 80.57745308 -0.02225276 91.62001766 -0.02749677 C112.48748167 -0.03717936 133.35494323 -0.03998135 154.22240923 -0.04055383 C170.3339707 -0.04101295 186.44553121 -0.0430691 202.55709237 -0.04625446 C207.19078739 -0.04715197 211.82448242 -0.04804178 216.45817745 -0.04892933 C217.61004878 -0.04915038 218.76192012 -0.04937143 219.94869664 -0.04959918 C252.35883632 -0.05575535 284.76897566 -0.05969954 317.17911595 -0.0592559 C319.01288207 -0.05923253 319.01288207 -0.05923253 320.88369397 -0.05920869 C327.08022584 -0.05912558 333.27675772 -0.05902654 339.47328959 -0.05892398 C340.70399647 -0.05890404 341.93470336 -0.05888409 343.20270439 -0.05886354 C345.69149451 -0.05882311 348.18028463 -0.05878131 350.66907475 -0.05873815 C389.39863553 -0.05812527 428.12818755 -0.06563352 466.85774583 -0.07931072 C510.34559798 -0.09466186 553.83344439 -0.10327753 597.32129943 -0.10234749 C601.95593752 -0.10227286 606.59057562 -0.10222415 611.22521371 -0.10219318 C612.93702932 -0.1021757 612.93702932 -0.1021757 614.68342707 -0.10215786 C633.07088544 -0.10212705 651.45833622 -0.10852056 669.84579233 -0.11712544 C688.31642471 -0.12559064 706.78704596 -0.12660077 725.2576792 -0.12001612 C736.23831817 -0.11631293 747.21892341 -0.11817572 758.19955883 -0.12795846 C765.52897833 -0.13393797 772.85837329 -0.13268569 780.18779165 -0.12548796 C784.36739101 -0.12158924 788.54692488 -0.12088006 792.72651974 -0.12894531 C796.52832814 -0.13621753 800.33001643 -0.1342955 804.13181945 -0.12502145 C806.14428948 -0.12248641 808.15676456 -0.12976947 810.16922155 -0.13744423 C825.49453814 -0.07680651 839.64658174 4.68856231 851.09187669 15.12649983 C852.24816575 16.14550374 852.24816575 16.14550374 853.42781419 17.18509358 C865.47711601 28.4137619 869.93126209 42.78990587 870.52937669 58.93899983 C870.42349563 72.28001275 865.63678283 84.90418717 857.09187669 95.12649983 C856.66777512 95.73235921 856.24367356 96.33821858 855.80672044 96.96243733 C848.99076163 106.17544586 835.43794153 113.53306427 824.30118024 115.65930122 C818.35987808 116.4712664 812.3475738 116.26605082 806.36411351 116.2579276 C804.95090243 116.25957848 803.53769181 116.26166532 802.12448195 116.2641477 C798.23319638 116.26970807 794.34193284 116.26904309 790.45064458 116.26737011 C786.22008269 116.26663874 781.989527 116.27166258 777.75896776 116.27594513 C769.36470259 116.28352474 760.97044378 116.28571817 752.57617555 116.28627418 C742.52302725 116.28718785 732.46988483 116.29385543 722.41673907 116.30062101 C698.11942992 116.31668233 673.82212141 116.32258422 649.52480791 116.32736976 C638.03252854 116.32970535 626.54024968 116.33330793 615.0479707 116.33706513 C575.71452217 116.34990011 536.38107392 116.36061986 497.04762334 116.36406773 C494.57844929 116.36428937 492.10927525 116.36451115 489.64010121 116.36473309 C487.16494482 116.36495373 484.68978842 116.36517421 482.21463203 116.36539453 C477.24899028 116.36583709 472.28334852 116.3662842 467.31770676 116.36673421 C466.08651601 116.3668436 464.85532526 116.36695299 463.5868257 116.36706569 C423.65498144 116.37069727 383.72315532 116.38662138 343.79131802 116.40992457 C301.58003342 116.434513 259.36875921 116.44824009 217.15746725 116.44943565 C212.52503536 116.44960711 207.89260348 116.44982254 203.26017159 116.45007008 C201.54920001 116.45015374 201.54920001 116.45015374 199.80366335 116.45023908 C181.43755619 116.45139032 163.07146764 116.46241838 144.70536676 116.47695714 C126.25058899 116.49131367 107.79583511 116.49456387 89.34105328 116.48651716 C78.37455925 116.4820571 67.40814224 116.4859366 56.4416583 116.50175567 C49.11663423 116.51149515 41.79166421 116.51033727 34.46664064 116.50031944 C30.29284328 116.49492003 26.11919398 116.49424106 21.9454088 116.50682816 C18.14418386 116.51819602 14.34322698 116.51561118 10.54201117 116.50216109 C8.53957079 116.49859806 6.53712044 116.50967788 4.53471151 116.52145237 C-12.77116391 116.42129467 -26.34850599 110.98481429 -38.96671706 99.20462483 C-43.23022732 94.78320679 -46.35618036 89.98687789 -49.28312331 84.62649983 C-49.61707107 84.02192952 -49.95101882 83.41735921 -50.29508621 82.79446858 C-56.43127982 70.99883218 -57.19635221 54.73668092 -54.03312331 41.93509358 C-51.53535251 34.44999752 -47.83227739 28.25219042 -42.90812331 22.12649983 C-42.40925613 21.44200764 -41.91038894 20.75751546 -41.39640456 20.05228108 C-31.92494069 7.90876694 -15.28573159 0.00433378 0 0 Z " fill="#020202" transform="translate(551.9081233143806,1190.8735001683235)"/>
</svg>
